<svg width="402.154" height="358.916" viewBox="0 0 106.403 94.963" xml:space="preserve" xmlns="http://www.w3.org/2000/svg"><g transform="translate(-53.181 -75.935)"><text xml:space="preserve" style="font-style:normal;font-variant:normal;font-weight:400;font-stretch:normal;font-size:25.4px;font-family:'Typo Round Regular Demo';-inkscape-font-specification:'Typo Round Regular Demo';letter-spacing:0;fill:purple;stroke:#fff;stroke-width:0;stroke-linecap:round;stroke-linejoin:round;stroke-miterlimit:6" x="73.542" y="180.513"/><path style="font-size:25.4px;font-family:'Comfortaa SemiBold';-inkscape-font-specification:'Comfortaa SemiBold, ';letter-spacing:-1.66423px;fill:#8d5fd3;fill-opacity:1;stroke:none;stroke-width:0;stroke-linecap:round;stroke-linejoin:round;stroke-miterlimit:6" d="M111.942 75.94c-6.242 0-11.953 1.053-17.131 3.155-5.178 2.033-9.647 4.94-13.406 8.726-.39.4-.767.81-1.139 1.226l.01-.077-27.095 27.864 16.441-.277c-.01.477-.033.953-.033 1.437 0 6.169 1.03 11.81 3.087 16.928 1.455 3.497 3.281 6.676 5.464 9.551l-7.157 6.698c-1.066 1.029-1.605 2.186-1.62 3.474-.011 1.29.496 2.46 1.536 3.513.991 1.003 2.162 1.539 3.515 1.604 1.305.01 2.489-.49 3.555-1.518l7.15-6.692c.834.648 1.69 1.27 2.58 1.853l-3.364 3.444c-1.066 1.028-1.605 2.185-1.621 3.474-.01 1.289.497 2.459 1.537 3.512.99 1.004 2.162 1.539 3.515 1.605 1.305.01 2.491-.49 3.557-1.519l6.033-5.92c1.25.4 2.53.746 3.838 1.033l-3.394 3.273c-1.066 1.029-1.606 2.188-1.621 3.477-.011 1.288.496 2.459 1.536 3.512.99 1.003 2.162 1.537 3.516 1.602 1.304.01 2.488-.49 3.554-1.518l9.434-9.098-.165-.166c5.357-.209 10.327-1.21 14.907-3.008 5.178-2.103 9.646-5.045 13.406-8.83 3.759-3.786 6.668-8.239 8.726-13.356 2.127-5.117 3.19-10.759 3.19-16.928 0-3.118-.28-6.105-.838-8.967l6.14-21.574-20.422-2.505c-3.024-2.418-6.422-4.373-10.202-5.857-5.179-2.103-10.853-3.156-17.024-3.156zm0 9.042c4.752 0 9.116.842 13.088 2.524 3.972 1.613 7.41 3.926 10.319 6.94 2.98 3.014 5.25 6.519 6.81 10.514 1.631 3.996 2.448 8.342 2.448 13.039 0 4.696-.817 9.078-2.448 13.143-1.56 3.996-3.83 7.5-6.81 10.515-2.908 2.944-6.347 5.257-10.32 6.939-3.971 1.682-8.335 2.524-13.087 2.524-4.753 0-9.116-.841-13.088-2.524-3.972-1.682-7.413-3.995-10.321-6.94-2.908-3.014-5.177-6.518-6.808-10.514-1.631-4.065-2.448-8.447-2.448-13.143 0-4.697.817-9.043 2.448-13.039 1.631-3.995 3.9-7.5 6.808-10.514 2.908-3.014 6.349-5.327 10.321-6.94 3.972-1.682 8.336-2.524 13.088-2.524zm-.216 15.495c-9.948 0-18.013 7.969-18.013 17.8 0 9.83 8.065 17.8 18.013 17.8 9.948 0 18.012-7.97 18.012-17.8 0-9.831-8.064-17.8-18.012-17.8z"/><path style="fill:#fff;fill-opacity:1;fill-rule:nonzero;stroke:none;stroke-width:0;stroke-linecap:round;stroke-linejoin:round;stroke-miterlimit:6;stroke-opacity:1" d="M111.943 84.932c-4.753 0-9.111.842-13.083 2.524-3.972 1.613-7.417 3.922-10.325 6.937-2.909 3.014-5.176 6.518-6.808 10.514-1.63 3.996-2.45 8.342-2.45 13.039 0 4.696.819 9.08 2.45 13.146 1.632 3.995 3.9 7.5 6.808 10.514 2.908 2.944 6.353 5.254 10.325 6.937 3.972 1.682 8.33 2.524 13.083 2.524 4.752 0 9.116-.842 13.088-2.524 3.972-1.683 7.412-3.993 10.32-6.937 2.979-3.014 5.252-6.519 6.812-10.514 1.632-4.066 2.445-8.45 2.445-13.146 0-4.697-.813-9.043-2.445-13.039-1.56-3.996-3.833-7.5-6.812-10.514-2.908-3.015-6.348-5.324-10.32-6.937-3.972-1.682-8.336-2.524-13.088-2.524z"/><ellipse style="fill:#000;fill-opacity:1;fill-rule:nonzero;stroke:none;stroke-width:0;stroke-linecap:round;stroke-linejoin:round;stroke-miterlimit:6;stroke-opacity:1" cx="112.383" cy="118.008" rx="13.795" ry="13.642"/></g></svg>