<?xml version="1.0" encoding="utf-8"?>
<!-- Generator: Adobe Illustrator 15.1.0, SVG Export Plug-In . SVG Version: 6.00 Build 0)  -->
<!DOCTYPE svg PUBLIC "-//W3C//DTD SVG 1.1//EN" "http://www.w3.org/Graphics/SVG/1.1/DTD/svg11.dtd">
<svg version="1.1" id="Layer_1" xmlns="http://www.w3.org/2000/svg" xmlns:xlink="http://www.w3.org/1999/xlink" x="0px" y="0px"
	 width="283.46px" height="283.46px" viewBox="0 0 283.46 283.46" enable-background="new 0 0 283.46 283.46" xml:space="preserve">
<circle fill="#6E00F5" cx="141.732" cy="141.732" r="136.063"/>
<g>
	<path fill="none" stroke="#FFFFFF" stroke-width="10" stroke-linecap="round" stroke-linejoin="round" stroke-miterlimit="10" d="
		M232.115,159.25"/>
	<path fill="#FFFFFF" d="M92.326,223.346c-1.435,0-2.849-0.617-3.828-1.78c-1.568-1.863-1.566-4.586,0.006-6.445l46.212-54.701
		l-53.391-32.173c-1.517-0.914-2.437-2.563-2.419-4.333c0.018-1.771,0.971-3.4,2.506-4.283L186.51,59.171
		c2.104-1.211,4.771-0.735,6.329,1.126c1.557,1.861,1.552,4.572-0.012,6.428l-45.215,53.692l52.655,31.92
		c1.507,0.912,2.421,2.552,2.407,4.313c-0.014,1.762-0.951,3.387-2.473,4.277L94.851,222.66
		C94.062,223.123,93.189,223.346,92.326,223.346z M93.76,124.063l51.143,30.819c1.254,0.757,2.114,2.023,2.353,3.47
		c0.238,1.444-0.168,2.922-1.113,4.04l-31.16,36.884l72.932-42.733l-50.478-30.6c-1.25-0.757-2.105-2.023-2.342-3.465
		c-0.237-1.441,0.168-2.914,1.109-4.032l30.702-36.459L93.76,124.063z"/>
	<path fill="none" stroke="#FFFFFF" stroke-width="10" stroke-linecap="round" stroke-linejoin="round" stroke-miterlimit="10" d="
		M92.323,218.346"/>
	
		<polygon fill="none" stroke="#FFFFFF" stroke-width="10" stroke-linecap="round" stroke-linejoin="round" stroke-miterlimit="10" points="
		49.606,89.042 141.732,36.44 233.858,88.555 233.858,194.597 141.732,247.025 49.606,195.083 	"/>
</g>
<g enable-background="new    ">
	<g>
		<path fill="#FFCF21" d="M102.381,206.097V103.339c0-8.955,4.972-15.943,14.778-20.772c7.041-3.451,15.446-5.199,24.986-5.199
			c9.12,0,17.379,1.746,24.55,5.188c9.563,4.861,14.387,11.845,14.387,20.783v31.91c0,3.731-1.293,7.827-3.843,12.173
			c-7.062,11.623-19.693,17.5-37.565,17.5c0,0-3.285-0.001-3.471-0.003v41.179H102.381z M142.146,97.191
			c-5.483,0-5.942,2.429-5.942,4.706v43.173c12.705-0.448,12.704-6.023,12.704-8.176v-27.177
			C148.908,97.191,143.995,97.191,142.146,97.191z"/>
		<path fill="#6E00F5" d="M142.146,79.868c8.779,0,16.604,1.646,23.468,4.942c8.645,4.395,12.969,10.571,12.969,18.529v31.91
			c0,3.291-1.165,6.93-3.499,10.908c-6.589,10.845-18.395,16.265-35.409,16.265h-2.882c-1.648,0-2.676-0.066-3.089-0.206v41.382
			h-28.822V103.339c0-7.958,4.458-14.135,13.382-18.529C124.985,81.516,132.947,79.868,142.146,79.868 M133.704,147.599h0.413h0.41
			c11.25,0,16.881-3.57,16.881-10.704v-27.177c0-10.016-3.088-15.026-9.262-15.026c-5.631,0-8.442,2.403-8.442,7.206V147.599
			 M142.146,74.868c-9.925,0-18.7,1.834-26.082,5.452c-13.376,6.587-16.182,16.153-16.182,23.019v100.258v5h5h28.822h5v-5v-36.176
			h0.971c18.805,0,32.156-6.281,39.683-18.668l0.02-0.033l0.02-0.033c2.778-4.734,4.187-9.256,4.187-13.438v-31.91
			c0-6.845-2.725-16.389-15.703-22.986l-0.051-0.026l-0.051-0.024C160.266,76.696,151.642,74.868,142.146,74.868L142.146,74.868z
			 M138.704,142.398v-40.5c0-1.422,0-2.206,3.442-2.206c1.166,0,4.262,0,4.262,10.026v27.177
			C146.408,138.373,146.408,141.565,138.704,142.398L138.704,142.398z"/>
	</g>
</g>
</svg>
