<?xml version="1.0" encoding="utf-8"?>
<!-- Generator: Adobe Illustrator 15.1.0, SVG Export Plug-In . SVG Version: 6.00 Build 0)  -->
<!DOCTYPE svg PUBLIC "-//W3C//DTD SVG 1.1//EN" "http://www.w3.org/Graphics/SVG/1.1/DTD/svg11.dtd">
<svg version="1.1" id="Layer_1" xmlns="http://www.w3.org/2000/svg" xmlns:xlink="http://www.w3.org/1999/xlink" x="0px" y="0px"
	 width="283.46px" height="283.46px" viewBox="0 0 283.46 283.46" enable-background="new 0 0 283.46 283.46" xml:space="preserve">
<circle fill="#6E00F5" cx="141.732" cy="141.732" r="136.063"/>
<g>
	<path fill="none" stroke="#FFFFFF" stroke-width="10" stroke-linecap="round" stroke-linejoin="round" stroke-miterlimit="10" d="
		M232.115,159.25"/>
	<linearGradient id="SVGID_1_" gradientUnits="userSpaceOnUse" x1="66.5054" y1="183.6294" x2="214.7247" y2="98.0549">
		<stop  offset="0.07" style="stop-color:#FFFFFF"/>
		<stop  offset="0.5" style="stop-color:#FFCF21"/>
		<stop  offset="0.93" style="stop-color:#FFFFFF"/>
	</linearGradient>
	<path fill="url(#SVGID_1_)" d="M92.326,223.346c-1.435,0-2.849-0.617-3.828-1.78c-1.568-1.863-1.566-4.586,0.006-6.446l46.212-54.7
		l-53.391-32.174c-1.517-0.914-2.437-2.563-2.419-4.333c0.018-1.771,0.971-3.4,2.506-4.283L186.51,59.171
		c2.105-1.211,4.771-0.735,6.329,1.126c1.557,1.861,1.552,4.572-0.012,6.428l-45.214,53.692l52.655,31.92
		c1.507,0.913,2.421,2.552,2.408,4.313c-0.014,1.762-0.952,3.387-2.473,4.277L94.851,222.66
		C94.062,223.123,93.189,223.346,92.326,223.346z M93.76,124.063l51.143,30.82c1.254,0.756,2.114,2.023,2.353,3.469
		c0.238,1.444-0.169,2.922-1.114,4.04l-31.16,36.884l72.931-42.734l-50.477-30.599c-1.25-0.757-2.105-2.023-2.342-3.465
		c-0.237-1.441,0.168-2.914,1.109-4.032l30.702-36.459L93.76,124.063z"/>
	<path fill="none" stroke="#FFFFFF" stroke-width="10" stroke-linecap="round" stroke-linejoin="round" stroke-miterlimit="10" d="
		M92.323,218.346"/>
	
		<polygon fill="none" stroke="#FFFFFF" stroke-width="10" stroke-linecap="round" stroke-linejoin="round" stroke-miterlimit="10" points="
		49.606,89.042 141.732,36.44 233.858,88.555 233.858,194.597 141.732,247.025 49.606,195.083 	"/>
</g>
</svg>
