<?xml version="1.0" encoding="utf-8"?>
<!-- Generator: Adobe Illustrator 16.0.0, SVG Export Plug-In . SVG Version: 6.00 Build 0)  -->
<!DOCTYPE svg PUBLIC "-//W3C//DTD SVG 1.1//EN" "http://www.w3.org/Graphics/SVG/1.1/DTD/svg11.dtd">
<svg version="1.1" id="screenshot-7616b214-362e-80ea-8001-7e3aff4c1735"
	 xmlns="http://www.w3.org/2000/svg" xmlns:xlink="http://www.w3.org/1999/xlink" x="0px" y="0px" width="55px" height="55px"
	 viewBox="0 0 55 55" enable-background="new 0 0 55 55" xml:space="preserve">
<g id="shape-61e52417-b697-8013-8001-8088d4c883e7_6_">
	<g id="shape-61e52417-b697-8013-8001-8088d4c883e8_6_">
		<g id="fills-61e52417-b697-8013-8001-8088d4c883e8_6_">
			<path fill="#2D0D3B" d="M3.733,27.502c0-3.358,0.627-6.533,1.885-9.521c1.256-2.992,2.971-5.587,5.146-7.808
				c2.172-2.214,4.72-3.972,7.644-5.251C21.331,3.639,24.44,3,27.731,3c3.293,0,6.401,0.639,9.329,1.924
				c2.931,1.279,5.474,3.039,7.646,5.251c2.175,2.222,3.886,4.815,5.146,7.808c1.252,2.986,1.882,6.16,1.882,9.521
				c0,3.361-0.629,6.533-1.882,9.523c-1.26,2.981-2.972,5.588-5.146,7.801c-2.172,2.223-4.717,3.975-7.646,5.252
				C34.132,51.363,31.024,52,27.731,52c-3.291,0-6.4-0.637-9.324-1.922c-2.924-1.277-5.472-3.031-7.644-5.252
				c-2.175-2.213-3.89-4.818-5.146-7.801C4.36,34.035,3.733,30.863,3.733,27.502z"/>
		</g>
	</g>
	<g id="shape-61e52417-b697-8013-8001-8088d4c8f2dd_6_">
		<g id="fills-61e52417-b697-8013-8001-8088d4c8f2dd_6_">
			<path fill="#FFFFFF" d="M21.012,30.758l9.243-2.512c0.796-0.219,1.616,0.246,1.831,1.053l1.594,5.836
				c0.214,0.807-0.255,1.625-1.051,1.84l-9.244,2.502l0.721,2.646l0,0c0.096,0.354,0.064,0.736-0.121,1.084
				c-0.383,0.729-1.289,1.002-2.012,0.625l-9.436-4.959h-0.004l0,0c-0.037-0.02-0.065-0.039-0.1-0.062
				c-0.695-0.426-0.912-1.352-0.479-2.051l5.572-8.971c0.187-0.346,0.515-0.623,0.93-0.73c0.797-0.223,1.617,0.248,1.834,1.048
				L21.012,30.758z"/>
		</g>
	</g>
	<g id="shape-61e52417-b697-8013-8001-8088d4c8f2de_6_">
		<g id="fills-61e52417-b697-8013-8001-8088d4c8f2de_6_">
			<path fill="#FFFFFF" d="M33.454,23.255l-9.242,2.498c-0.803,0.224-1.624-0.243-1.84-1.043l-1.588-5.849
				c-0.213-0.794,0.254-1.616,1.051-1.825l9.24-2.512l-0.723-2.639h0.01c-0.096-0.353-0.064-0.735,0.112-1.085
				c0.386-0.729,1.288-1.012,2.022-0.634l9.428,4.965l0.009,0.005l0,0c0.031,0.021,0.063,0.028,0.097,0.052
				c0.699,0.438,0.91,1.354,0.479,2.051l-5.575,8.968c-0.187,0.354-0.512,0.629-0.928,0.741c-0.796,0.214-1.618-0.254-1.834-1.05
				L33.454,23.255z"/>
		</g>
	</g>
</g>
<g>
	<path fill="#2D0D3B" d="M77.083,31.941l-3.439,3.772v9.173H65.26V10.113h8.383v15.333l2.914-4.418l7.499-10.915h10.365
		l-11.75,15.381l11.75,19.393h-9.936L77.083,31.941z"/>
	<path fill="#2D0D3B" d="M125.254,28.217c0,3.391-0.629,6.393-1.887,9.004s-3.045,4.621-5.362,6.029
		c-2.316,1.41-4.956,2.113-7.917,2.113c-2.962,0-5.589-0.68-7.882-2.041c-2.292-1.361-4.08-3.309-5.361-5.84
		c-1.282-2.531-1.955-5.438-2.019-8.717v-1.958c0-3.407,0.625-6.412,1.875-9.016s3.041-4.613,5.374-6.03
		c2.332-1.417,4.987-2.126,7.965-2.126c2.945,0,5.572,0.701,7.881,2.102c2.309,1.401,4.104,3.396,5.386,5.983
		c1.28,2.587,1.932,5.553,1.946,8.896L125.254,28.217L125.254,28.217z M116.728,26.759c0-3.455-0.578-6.078-1.731-7.869
		c-1.155-1.791-2.807-2.687-4.956-2.687c-4.203,0-6.425,3.152-6.663,9.457l-0.024,2.556c0,3.406,0.565,6.025,1.696,7.856
		c1.13,1.83,2.81,2.746,5.039,2.746c2.117,0,3.749-0.897,4.896-2.698c1.146-1.8,1.728-4.388,1.744-7.763L116.728,26.759
		L116.728,26.759z"/>
	<path fill="#2D0D3B" d="M138.51,44.887h-8.359V10.113h8.359V44.887z"/>
	<path fill="#2D0D3B" d="M173.379,44.887h-8.336l-12.324-21.638v21.638h-8.383V10.113h8.383L165.02,31.75V10.113h8.359V44.887z"/>
	<path fill="#2D0D3B" d="M178.68,44.887V10.113h11.201c3.072,0,5.834,0.697,8.287,2.09c2.451,1.394,4.365,3.36,5.744,5.899
		c1.377,2.54,2.072,5.386,2.09,8.538v1.6c0,3.186-0.674,6.039-2.02,8.562c-1.346,2.522-3.24,4.497-5.685,5.922
		c-2.442,1.426-5.17,2.146-8.18,2.162H178.68L178.68,44.887z M187.062,16.585v21.853h2.914c2.401,0,4.25-0.855,5.541-2.566
		c1.289-1.711,1.934-4.256,1.934-7.631v-1.504c0-3.359-0.645-5.891-1.934-7.595c-1.291-1.704-3.17-2.556-5.638-2.556H187.062z"/>
	<path fill="#2D0D3B" d="M222.744,21.672l5.684-11.56h9.576l-9.719,17.244l9.982,17.531h-9.674l-5.851-11.775l-5.853,11.775h-9.647
		l9.959-17.531l-9.697-17.244h9.554L222.744,21.672z"/>
</g>
</svg>
