<?xml version="1.0" standalone="no"?>
<!DOCTYPE svg PUBLIC "-//W3C//DTD SVG 20010904//EN"
 "http://www.w3.org/TR/2001/REC-SVG-20010904/DTD/svg10.dtd">
<svg version="1.0" xmlns="http://www.w3.org/2000/svg"
 width="283.000000pt" height="283.000000pt" viewBox="0 0 283.000000 283.000000"
 preserveAspectRatio="xMidYMid meet">
<metadata>
Created by potrace 1.14, written by Peter Selinger 2001-2017
</metadata>
<g transform="translate(0.000000,283.000000) scale(0.100000,-0.100000)"
fill="#000000" stroke="none">
<path d="M1328 2405 c-1 -2 -25 -6 -53 -9 -338 -38 -665 -308 -786 -648 -122
-343 -41 -739 206 -1006 138 -149 353 -272 521 -298 22 -3 59 -10 84 -14 25
-5 97 -7 160 -5 370 12 692 219 854 550 74 150 101 270 100 445 0 169 -27 288
-99 435 -161 332 -484 538 -862 550 -66 2 -123 2 -125 0z m-184 -305 c14 -5
35 -24 46 -42 18 -30 20 -51 20 -250 0 -120 1 -218 3 -218 2 0 120 117 263
260 l259 260 44 0 c36 0 49 -6 77 -34 28 -28 34 -42 34 -76 0 -47 -1 -48 -268
-315 l-133 -133 22 -39 c12 -21 102 -176 200 -345 202 -346 205 -354 145 -414
-27 -27 -42 -34 -74 -34 -24 0 -49 8 -64 20 -14 10 -107 160 -208 333 l-183
314 -58 -60 -58 -59 -1 -239 -1 -239 -33 -35 c-27 -28 -41 -35 -72 -35 -46 0
-102 35 -111 70 -4 14 -7 297 -7 630 -1 576 0 607 18 637 30 49 82 65 140 43z"/>
</g>
</svg>
