<?xml version="1.0" standalone="no"?>
<!DOCTYPE svg PUBLIC "-//W3C//DTD SVG 20010904//EN"
 "http://www.w3.org/TR/2001/REC-SVG-20010904/DTD/svg10.dtd">
<svg version="1.0" xmlns="http://www.w3.org/2000/svg"
 width="96.000000pt" height="96.000000pt" viewBox="0 0 96.000000 96.000000"
 preserveAspectRatio="xMidYMid meet">
<metadata>
Created by potrace 1.14, written by Peter Selinger 2001-2017
</metadata>
<g transform="translate(0.000000,96.000000) scale(0.100000,-0.100000)"
fill="#000000" stroke="none">
<path d="M395 834 c-44 -25 -109 -62 -145 -81 -36 -20 -80 -45 -98 -55 l-32
-20 2 -200 3 -201 177 -99 178 -99 177 99 178 100 0 202 0 203 -175 98 c-96
54 -177 98 -180 98 -3 0 -41 -20 -85 -45z m170 -94 c47 -27 95 -52 105 -55 46
-15 42 -31 -17 -63 l-58 -30 -30 21 c-41 30 -132 31 -172 1 l-29 -22 -53 28
c-28 15 -52 31 -53 36 0 5 192 122 219 133 1 1 41 -21 88 -49z m-259 -212 c6
-4 14 -31 17 -59 7 -59 45 -116 89 -133 27 -10 28 -13 28 -73 0 -35 -3 -63 -7
-63 -5 0 -33 15 -63 33 -31 17 -81 46 -113 62 l-57 30 0 133 0 133 48 -27 c26
-15 52 -31 58 -36z m454 -75 l-1 -128 -114 -63 c-63 -34 -117 -62 -120 -62 -3
0 -5 29 -5 64 0 59 2 64 24 70 40 10 84 69 91 123 8 63 13 71 60 98 66 38 65
39 65 -102z m-218 74 c53 -67 -24 -153 -100 -113 -40 20 -52 71 -27 109 9 14
24 28 33 31 31 8 77 -4 94 -27z"/>
</g>
</svg>
