<?xml version="1.0" encoding="utf-8"?>
<!-- Generator: Adobe Illustrator 15.1.0, SVG Export Plug-In . SVG Version: 6.00 Build 0)  -->
<!DOCTYPE svg PUBLIC "-//W3C//DTD SVG 1.0//EN" "http://www.w3.org/TR/2001/REC-SVG-20010904/DTD/svg10.dtd">
<svg version="1.0" id="Layer_1" xmlns="http://www.w3.org/2000/svg" xmlns:xlink="http://www.w3.org/1999/xlink" x="0px" y="0px"
	 width="283.46px" height="283.46px" viewBox="0 0 283.46 283.46" enable-background="new 0 0 283.46 283.46" xml:space="preserve">
<circle fill="#6E00F5" cx="141.732" cy="141.732" r="136.063"/>
<g>
	<path fill="#FFFFFF" d="M233.552,78.103c-0.035-0.146-0.063-0.293-0.108-0.439c-0.605-1.998-1.922-3.578-3.584-4.569l0.007-0.016
		l-0.319-0.172c-0.004,0-0.008-0.002-0.009-0.004l-58.276-31.208c-0.005-0.002-0.011-0.004-0.011-0.006l-0.473-0.253l-0.014,0.022
		c-1.709-0.773-3.696-0.961-5.635-0.375c-3.812,1.151-6.13,4.879-5.645,8.701l-0.197,0.051l4.877,18.706l-55.779,14.545l0.005,0.02
		c-3.761,1.187-6.084,4.921-5.539,8.777l-0.056,0.015l3.669,14.07l2.575,9.878l3.669,14.07l0.057-0.014
		c1.406,3.632,5.258,5.757,9.119,4.956l0.005,0.018l55.778-14.545l4.877,18.706l0.199-0.05c1.443,3.57,5.286,5.69,9.174,4.836
		c1.979-0.436,3.62-1.569,4.733-3.08l0.021,0.014l0.289-0.451c0.003-0.005,0.005-0.008,0.008-0.012L232.588,84.6
		c0.001,0,0.004-0.002,0.006-0.006l0.194-0.307l-0.015-0.01c0.97-1.676,1.345-3.699,0.897-5.739
		C233.638,78.39,233.593,78.247,233.552,78.103z"/>
	<path fill="#FFFFFF" d="M49.914,205.36c0.035,0.148,0.063,0.294,0.108,0.439c0.604,1.999,1.92,3.58,3.583,4.571l-0.009,0.016
		l0.322,0.173c0.002,0,0.006,0.001,0.009,0.002l58.276,31.206c0.003,0.003,0.008,0.007,0.012,0.008l0.471,0.25l0.013-0.019
		c1.71,0.773,3.696,0.961,5.636,0.373c3.812-1.15,6.13-4.877,5.645-8.698l0.198-0.052l-4.877-18.708l55.776-14.545l-0.004-0.019
		c3.762-1.186,6.085-4.921,5.539-8.777l0.057-0.013l-3.669-14.071l-2.576-9.878l-3.668-14.069l-0.059,0.013
		c-1.405-3.632-5.257-5.756-9.117-4.954l-0.005-0.019l-55.779,14.545l-4.878-18.707l-0.198,0.052
		c-1.443-3.572-5.287-5.69-9.174-4.836c-1.981,0.435-3.62,1.568-4.735,3.081l-0.022-0.014l-0.288,0.449
		c-0.002,0.004-0.006,0.009-0.007,0.013l-35.616,55.694c-0.003,0-0.003,0.001-0.006,0.005l-0.195,0.308l0.014,0.009
		c-0.968,1.676-1.344,3.7-0.894,5.739C49.827,205.075,49.872,205.218,49.914,205.36z"/>
</g>
</svg>
