<?xml version="1.0" encoding="utf-8"?>
<!-- Generator: Adobe Illustrator 15.1.0, SVG Export Plug-In . SVG Version: 6.00 Build 0)  -->
<!DOCTYPE svg PUBLIC "-//W3C//DTD SVG 1.1//EN" "http://www.w3.org/Graphics/SVG/1.1/DTD/svg11.dtd">
<svg version="1.1" id="Layer_1" xmlns="http://www.w3.org/2000/svg" xmlns:xlink="http://www.w3.org/1999/xlink" x="0px" y="0px"
	 width="283.46px" height="283.46px" viewBox="0 0 283.46 283.46" enable-background="new 0 0 283.46 283.46" xml:space="preserve">
<circle fill="#6E00F5" cx="141.732" cy="141.732" r="136.063"/>
<g>
	<path fill="#FFFFFF" d="M247.771,75.021c-1.979-2.953-5.979-3.744-8.933-1.764c-2.955,1.98-3.744,5.98-1.765,8.933
		c6.437,9.602,6.875,21.797,1.146,31.826c-3.396,5.951-8.555,10.417-14.6,12.927c-0.322,0.102-0.636,0.222-0.933,0.369
		c-3.89,1.465-8.119,2.135-12.463,1.885c-3.542-0.195-6.594,2.508-6.799,6.058c-0.204,3.55,2.508,6.594,6.059,6.797
		c0.852,0.048,1.698,0.074,2.543,0.074c2.512,0,4.986-0.217,7.406-0.637c-0.389,4.246-1.686,8.367-3.863,12.18
		c-3.393,5.939-8.543,10.405-14.574,12.919c-0.341,0.104-0.667,0.231-0.977,0.388c-3.886,1.459-8.106,2.125-12.442,1.873
		c-3.553-0.193-6.595,2.508-6.8,6.057c-0.204,3.552,2.508,6.594,6.058,6.8c0.852,0.049,1.699,0.073,2.546,0.073
		c2.509,0,4.984-0.22,7.403-0.638c-0.39,4.246-1.687,8.369-3.863,12.18c-5.728,10.03-16.464,15.852-27.995,15.182
		c-3.537-0.195-6.594,2.506-6.798,6.058c-0.207,3.55,2.508,6.594,6.056,6.799c0.854,0.048,1.702,0.073,2.547,0.073
		c2.469,0,4.905-0.211,7.284-0.614c-0.362,4.319-1.664,8.518-3.876,12.393c-5.729,10.029-16.453,15.85-27.998,15.181
		c-0.04-0.001-0.081,0.002-0.122-0.001c-0.099-0.005-0.2,0-0.299,0c-0.091,0-0.183-0.005-0.272,0c-0.042,0.003-0.083,0-0.125,0.001
		c-0.598,0.035-1.192,0.052-1.785,0.052c-10.852,0-20.779-5.724-26.21-15.232c-2.214-3.875-3.514-8.072-3.879-12.393
		c2.382,0.405,4.817,0.614,7.286,0.614c0.845,0,1.694-0.025,2.545-0.073c3.55-0.205,6.263-3.249,6.058-6.799
		c-0.206-3.552-3.256-6.253-6.799-6.058c-11.538,0.669-22.267-5.151-27.996-15.18c-2.176-3.813-3.473-7.936-3.861-12.18
		c2.418,0.416,4.894,0.636,7.403,0.636c0.845,0,1.694-0.024,2.544-0.073c3.551-0.206,6.263-3.248,6.058-6.8
		c-0.205-3.549-3.251-6.257-6.798-6.057c-0.598,0.034-1.191,0.052-1.785,0.052c-3.715-0.002-7.321-0.672-10.676-1.936
		c-0.297-0.147-0.611-0.268-0.935-0.369c-6.042-2.511-11.2-6.979-14.599-12.927c-2.177-3.813-3.474-7.934-3.862-12.18
		c2.419,0.419,4.894,0.637,7.405,0.637c0.844,0,1.694-0.025,2.543-0.074c3.55-0.204,6.263-3.248,6.059-6.797
		c-0.205-3.55-3.248-6.256-6.798-6.058c-0.598,0.035-1.192,0.051-1.785,0.051c-3.714,0-7.319-0.67-10.673-1.934
		c-0.302-0.15-0.619-0.272-0.947-0.375c-6.039-2.511-11.194-6.977-14.591-12.923c-5.729-10.028-5.289-22.224,1.146-31.826
		c1.98-2.953,1.19-6.953-1.764-8.933c-2.953-1.979-6.953-1.19-8.933,1.764c-9.175,13.69-9.8,31.08-1.631,45.382
		c4.117,7.207,10.044,12.89,17.016,16.632c-0.3,8.001,1.637,16.022,5.635,23.021c4.117,7.205,10.043,12.888,17.016,16.63
		c-0.301,8.001,1.637,16.023,5.633,23.023c4.145,7.255,10.125,12.962,17.158,16.703c-0.333,8.055,1.602,16.138,5.626,23.183
		c7.746,13.564,21.9,21.724,37.374,21.724c0.734,0,1.473-0.021,2.213-0.06c0.74,0.039,1.478,0.06,2.212,0.06
		c15.474,0,29.63-8.161,37.375-21.724c4.023-7.045,5.96-15.128,5.627-23.183c7.033-3.741,13.013-9.45,17.156-16.705
		c3.999-6.998,5.935-15.021,5.635-23.021c6.972-3.744,12.898-9.425,17.014-16.632c3.999-6.997,5.937-15.019,5.636-23.021
		c6.973-3.742,12.898-9.425,17.016-16.631C257.571,106.101,256.946,88.711,247.771,75.021z"/>
	<path fill="#FFFFFF" d="M224.354,47.054c-3.088-1.763-7.021-0.69-8.784,2.397c-3.398,5.95-8.557,10.416-14.603,12.927
		c-0.321,0.102-0.634,0.221-0.93,0.369c-3.891,1.465-8.118,2.134-12.461,1.884c-3.553-0.205-6.595,2.507-6.8,6.058
		c-0.206,3.55,2.508,6.594,6.057,6.799c0.853,0.048,1.7,0.072,2.545,0.072c2.51,0,4.984-0.218,7.405-0.636
		c-0.39,4.245-1.687,8.369-3.863,12.18c-5.729,10.03-16.464,15.845-27.995,15.181c-3.537-0.194-6.594,2.507-6.798,6.058
		c-0.207,3.55,2.508,6.594,6.056,6.798c0.854,0.05,1.7,0.074,2.547,0.074c2.469,0,4.903-0.21,7.284-0.615
		c-0.362,4.32-1.664,8.517-3.878,12.393c-5.392,9.444-15.425,14.939-27.6,15.16c-0.252-0.029-0.506-0.049-0.766-0.049
		c-0.07,0-0.138,0-0.206,0c-12.212,0-22.73-5.663-28.161-15.171c-2.214-3.875-3.514-8.072-3.878-12.392
		c2.38,0.404,4.815,0.614,7.285,0.614c0.844,0,1.694-0.024,2.545-0.074c3.551-0.205,6.262-3.249,6.058-6.798
		c-0.206-3.551-3.255-6.259-6.799-6.057c-11.538,0.668-22.266-5.151-27.995-15.181c-2.176-3.812-3.474-7.934-3.862-12.18
		c2.419,0.418,4.894,0.636,7.404,0.636c0.845,0,1.693-0.023,2.544-0.073c3.55-0.205,6.262-3.249,6.058-6.798
		c-0.205-3.551-3.25-6.254-6.798-6.058c-4.344,0.25-8.573-0.419-12.464-1.886c-0.295-0.146-0.605-0.266-0.927-0.366
		c-6.044-2.51-11.204-6.978-14.603-12.927c-1.764-3.088-5.696-4.162-8.785-2.398c-3.087,1.764-4.161,5.696-2.396,8.785
		c4.116,7.207,10.043,12.888,17.015,16.63c-0.301,8.002,1.637,16.022,5.634,23.022c4.145,7.256,10.125,12.964,17.158,16.706
		c-0.333,8.055,1.601,16.136,5.625,23.183c7.648,13.389,22.047,21.432,38.647,21.65c0.295,0.042,0.595,0.07,0.902,0.07c0,0,0,0,0,0
		c17.016,0,31.801-8.096,39.547-21.661c4.023-7.045,5.958-15.127,5.625-23.182c7.033-3.741,13.013-9.449,17.158-16.706
		c3.997-6.999,5.935-15.021,5.635-23.022c6.972-3.742,12.898-9.424,17.014-16.63C228.516,52.75,227.441,48.817,224.354,47.054z"/>
</g>
</svg>
