<?xml version="1.0" encoding="utf-8"?>
<!-- Generator: Adobe Illustrator 15.1.0, SVG Export Plug-In . SVG Version: 6.00 Build 0)  -->
<!DOCTYPE svg PUBLIC "-//W3C//DTD SVG 1.1//EN" "http://www.w3.org/Graphics/SVG/1.1/DTD/svg11.dtd">
<svg version="1.1" id="Layer_1" xmlns="http://www.w3.org/2000/svg" xmlns:xlink="http://www.w3.org/1999/xlink" x="0px" y="0px"
	 width="283.46px" height="283.46px" viewBox="0 0 283.46 283.46" enable-background="new 0 0 283.46 283.46" xml:space="preserve">
<circle fill="#6E00F5" cx="141.732" cy="141.732" r="136.063"/>
<g enable-background="new    ">
	<path fill="#FFFFFF" d="M112.706,99.052l-17.1,87.6h-30l-16.35-87.6h21l10.95,71.399l11.25-71.399H112.706z"/>
	<path fill="#FFFFFF" d="M172.705,186.652h-21v-42h-11.551v42h-21v-87.6h21v33.449h11.551V99.052h21V186.652z"/>
	<path fill="#FFFFFF" d="M234.501,136.852c0,2.399-0.851,5.051-2.55,7.95c-4.8,7.9-13.401,11.85-25.8,11.85h-2.1
		c-1.2,0-1.95-0.049-2.25-0.15v30.15h-21v-73.05c0-5.799,3.248-10.299,9.75-13.5c4.898-2.4,10.699-3.601,17.399-3.601
		c6.398,0,12.099,1.2,17.101,3.601c6.3,3.201,9.449,7.701,9.449,13.5V136.852z M214.702,118.251c0-7.298-2.25-10.949-6.75-10.949
		c-4.102,0-6.149,1.75-6.149,5.25v33.3h0.3h0.3c8.198,0,12.3-2.6,12.3-7.8V118.251z"/>
</g>
</svg>
